<svg width="40" height="46" viewBox="0 0 40 46" fill="none" xmlns="http://www.w3.org/2000/svg">
<path d="M3.63902 40.8312L0 0H40L36.3561 40.8247L19.9757 45.3662L3.63902 40.8312Z" fill="#1572B6"/>
<path d="M20 41.8957L33.2372 38.2259L36.3513 3.33936H20V41.8957Z" fill="#33A9DC"/>
<path d="M20 18.1322H26.6267L27.0836 13.0042H20V7.99609H20.0178H32.5567L32.4368 9.33926L31.2071 23.1403H20V18.1322Z" fill="white"/>
<path d="M20.0303 31.1372L20.0077 31.1437L14.4309 29.6369L14.0744 25.6431H11.3638H9.04688L9.74843 33.506L20.006 36.3543L20.0303 36.3479V31.1372Z" fill="#EBEBEB"/>
<path d="M26.2003 22.9277L25.5976 29.6338L20.0127 31.1406V36.3513L30.2784 33.5062L30.3546 32.6604L31.2246 22.9277H26.2003Z" fill="white"/>
<path d="M20.018 7.99609V11.1069V12.9912V13.0042H7.93766H7.92146L7.821 11.8781L7.59255 9.33926L7.47266 7.99609H20.018Z" fill="#EBEBEB"/>
<path d="M20.0002 18.1323V21.2431V23.1275V23.1404H14.5093H14.4931L14.3926 22.0144L14.1658 19.4755L14.0459 18.1323H20.0002Z" fill="#EBEBEB"/>
</svg>
