<svg width="40" height="46" viewBox="0 0 40 46" fill="none" xmlns="http://www.w3.org/2000/svg">
<path d="M3.64034 40.8279L0 0H40L36.3548 40.8214L19.9757 45.3625L3.64034 40.8279Z" fill="#E44F26"/>
<path d="M20 41.8921L33.2361 38.2226L36.3499 3.33887H20V41.8921Z" fill="#F1662A"/>
<path d="M20 18.4805H13.3739L12.917 13.3529H20V8.34521H19.9822H7.44434L7.56422 9.68989L8.79387 23.4882H20V18.4805Z" fill="#EBEBEB"/>
<path d="M20.0002 31.4848L19.9775 31.4913L14.4011 29.9862L14.0447 25.9927H11.3343H9.01758L9.71908 33.8533L19.9775 36.7015L20.0002 36.695V31.4848Z" fill="#EBEBEB"/>
<path d="M19.9824 18.4805V23.4882H26.1485L25.5685 29.9831L19.9824 31.4898V36.7L30.2489 33.8535L30.3235 33.0078L31.4996 19.8251L31.6228 18.4805H30.2732H19.9824Z" fill="white"/>
<path d="M19.9824 8.34521V11.4558V13.3416V13.3529H32.0618H32.078L32.1785 12.2286L32.4069 9.68989L32.5268 8.34521H19.9824Z" fill="white"/>
</svg>
