<svg width="40" height="40" viewBox="0 0 40 40" fill="none" xmlns="http://www.w3.org/2000/svg">
<path d="M0 14.4761C0 9.40904 0 6.87547 0.986129 4.94009C1.85356 3.23767 3.23767 1.85356 4.94009 0.986129C6.87547 0 9.40904 0 14.4761 0H25.5239C30.591 0 33.1246 0 35.0599 0.986129C36.7623 1.85356 38.1464 3.23767 39.0139 4.94009C40 6.87547 40 9.40904 40 14.4761V25.5239C40 30.591 40 33.1246 39.0139 35.0599C38.1464 36.7623 36.7623 38.1464 35.0599 39.0139C33.1246 40 30.591 40 25.5239 40H14.4761C9.40904 40 6.87547 40 4.94009 39.0139C3.23767 38.1464 1.85356 36.7623 0.986129 35.0599C0 33.1246 0 30.591 0 25.5239V14.4761Z" fill="#330000"/>
<path d="M19.3834 25.1374H13.185L11.9239 29.1555C11.8889 29.3048 11.7514 29.4105 11.6019 29.4031H8.46235C8.2833 29.4031 8.2207 29.3022 8.27452 29.1004L13.6411 13.2481C13.6949 13.0829 13.7486 12.8949 13.8021 12.6839C13.8724 12.3167 13.9083 11.9435 13.9096 11.5694C13.8941 11.4588 13.9913 11.3611 14.0973 11.3766H18.3639C18.4889 11.3766 18.5603 11.4225 18.5784 11.5142L24.6697 29.1279C24.7233 29.3115 24.6697 29.4032 24.5087 29.4031H21.0203C20.898 29.4171 20.7811 29.3332 20.752 29.2105L19.3834 25.1374ZM14.151 21.6697H18.3907C17.6941 19.2894 16.908 16.9404 16.2709 14.5417C15.5834 16.9445 14.8334 19.3377 14.151 21.6697Z" fill="#FF9A00"/>
<path d="M28.2922 14.294C28.0185 14.3053 27.7456 14.2571 27.4912 14.1529C27.2369 14.0486 27.0069 13.8903 26.8163 13.6886C26.6263 13.478 26.4786 13.2311 26.3819 12.9619C26.2852 12.6927 26.2413 12.4066 26.2528 12.1199C26.243 11.836 26.2918 11.5533 26.3958 11.2901C26.4999 11.0269 26.6569 10.7891 26.8566 10.5924C27.0543 10.3977 27.2878 10.2452 27.5435 10.1436C27.799 10.042 28.0718 9.99347 28.3458 10.0007C28.9899 10.0007 29.4952 10.1979 29.8619 10.5924C30.047 10.7974 30.1909 11.0378 30.2853 11.2999C30.3796 11.562 30.4228 11.8407 30.4119 12.1199C30.4232 12.4076 30.3779 12.6949 30.2788 12.9643C30.1798 13.2337 30.0288 13.48 29.835 13.6886C29.6326 13.8933 29.3909 14.0527 29.1255 14.157C28.8599 14.2611 28.5762 14.3079 28.2922 14.294ZM26.4406 29.128V15.9729C26.4406 15.8077 26.5119 15.7251 26.6553 15.7251H29.9559C30.0988 15.7251 30.1703 15.8077 30.1705 15.9729V29.128C30.1705 29.3117 30.0989 29.4034 29.9559 29.4033H26.6822C26.5212 29.4033 26.4406 29.3116 26.4406 29.128Z" fill="#FF9A00"/>
</svg>
