<svg width="40" height="40" viewBox="0 0 40 40" fill="none" xmlns="http://www.w3.org/2000/svg">
<path d="M0 14.4761C0 9.40904 0 6.87547 0.986129 4.94009C1.85356 3.23767 3.23767 1.85356 4.94009 0.986129C6.87547 0 9.40904 0 14.4761 0H25.5239C30.591 0 33.1246 0 35.0599 0.986129C36.7623 1.85356 38.1464 3.23767 39.0139 4.94009C40 6.87547 40 9.40904 40 14.4761V25.5239C40 30.591 40 33.1246 39.0139 35.0599C38.1464 36.7623 36.7623 38.1464 35.0599 39.0139C33.1246 40 30.591 40 25.5239 40H14.4761C9.40904 40 6.87547 40 4.94009 39.0139C3.23767 38.1464 1.85356 36.7623 0.986129 35.0599C0 33.1246 0 30.591 0 25.5239V14.4761Z" fill="#001E36"/>
<path d="M8.57129 29.309V11.7193C8.57129 11.5997 8.62129 11.5313 8.73796 11.5313C10.4603 11.5313 12.1819 11.4287 13.9046 11.4287C16.7001 11.4287 19.727 12.3846 20.788 15.309C21.038 16.027 21.1713 16.762 21.1713 17.5313C21.1713 19.0014 20.838 20.215 20.1713 21.1723C18.309 23.8463 15.0813 23.8047 12.188 23.8047V29.292C12.2106 29.4544 12.0721 29.5313 11.938 29.5313H8.77129C8.63796 29.5313 8.57129 29.4629 8.57129 29.309ZM12.2046 14.8304V20.574C13.3519 20.658 14.5523 20.6671 15.6546 20.3006C16.8716 19.9494 17.538 18.8961 17.538 17.6339C17.5717 16.5583 16.9857 15.5263 15.988 15.1381C14.899 14.6853 13.3801 14.6581 12.2046 14.8304Z" fill="#31A8FF"/>
<path d="M31.5662 19.4392C31.0619 19.1733 30.5248 18.9789 29.9695 18.8612C29.256 18.6933 26.442 18.1053 26.4409 19.5767C26.4659 20.3982 27.7699 20.8006 28.346 21.0353C30.3688 21.7297 32.6576 22.971 32.6126 25.4663C32.6745 28.5726 29.6648 29.8144 27.0849 29.8147C25.7419 29.8286 24.3428 29.6206 23.1136 29.044C22.9962 28.9819 22.9208 28.8492 22.9258 28.7137V25.7414C22.9125 25.6223 23.0405 25.5182 23.1405 25.6039C24.3448 26.3322 25.7722 26.6859 27.1655 26.7047C27.7805 26.7047 28.9993 26.6452 28.9902 25.7414C28.9902 24.8743 27.532 24.4756 26.9508 24.2553C26.1082 23.9546 25.3093 23.5379 24.576 23.0169C23.5512 22.2859 22.9083 21.1139 22.9258 19.8244C22.9198 16.8996 25.6902 15.5867 28.1852 15.5862C29.3515 15.5764 30.604 15.6629 31.6898 16.1366C31.8459 16.1824 31.8782 16.347 31.8776 16.4943V19.274C31.8875 19.4466 31.6959 19.5053 31.5662 19.4392Z" fill="#31A8FF"/>
</svg>
